<?xml version="1.0" encoding="UTF-8"?>
<svg id="_Слой_2" data-name="Слой 2" xmlns="http://www.w3.org/2000/svg" viewBox="0 0 383.26 330.35">
  <defs>
    <style>
      .cls-1 {
        stroke-width: 0px;
      }
    </style>
  </defs>
  <g id="_Слой_1-2" data-name="Слой 1">
    <g>
      <path class="cls-1" d="M0,127.07c.96-7.13,1.7-14.3,2.92-21.39C9.66,66.85,27.05,33.43,54.37,5.11c5.86-6.07,12.37-6.76,17.42-1.96,4.97,4.71,4.59,11.59-1.16,17.49-16.49,16.92-29.01,36.37-37.36,58.48-7.16,18.96-10.63,38.6-10.83,58.86-.07,6.71-4.22,11.45-10.37,12.06C7.09,150.54,3.14,147.68,0,141.29,0,136.55,0,131.81,0,127.07Z"/>
      <path class="cls-1" d="M191.33,282.34c-34.8,0-69.59,0-104.39-.01-1.87,0-3.76.01-5.59-.28-7.5-1.21-11.31-9.19-7.73-16.48,6.21-12.63,12.4-25.27,18.96-37.72,2.71-5.14,3.81-10.25,3.75-16.04-.2-17.95-.83-35.97.26-53.86,2.31-38.05,21.66-65.12,55.69-81.85,2.84-1.4,4.53-2.83,5.35-6.24,3.83-15.81,18.6-26.86,34.68-26.47,16.32.39,30.21,11.87,33.86,27.73.35,1.51,1.69,3.34,3.06,4,37.24,17.87,56.88,47.23,57.74,88.66.37,17.7.01,35.42.13,53.13.01,2.14.55,4.47,1.5,6.39,6.68,13.64,13.55,27.19,20.33,40.79,5.13,10.28.22,18.24-11.33,18.25-35.42.03-70.84.01-106.26.01Z"/>
      <path class="cls-1" d="M383.25,134.48c0,.82.03,2.44,0,4.06-.16,6.56-5.11,11.6-11.3,11.54-6.07-.06-10.62-4.96-11.19-11.33-1.04-11.65-1.53-23.44-3.78-34.87-6.21-31.62-21.12-58.88-43.32-82.22-1.94-2.04-3.91-4.33-4.98-6.88-1.95-4.61.18-10.11,4.3-12.81,4.62-3.03,10.22-2.52,14.37,1.6,10.75,10.68,20.07,22.52,27.96,35.47,17.72,29.06,26.82,60.67,27.96,95.44Z"/>
      <path class="cls-1" d="M48.09,132.23c2.19-36.47,15.86-67.84,41.28-94.1,3.33-3.44,7.25-4.82,11.87-3.54,4.2,1.17,6.8,4.1,7.77,8.31,1.05,4.59-.85,8.22-4,11.44-9.87,10.06-17.73,21.51-23.6,34.34-6.89,15.06-10.3,30.89-10.85,47.4-.07,1.98-.05,4.04-.56,5.92-1.39,5.12-6.63,8.61-11.65,8.03-5.61-.65-9.81-4.96-10.22-10.7-.17-2.36-.03-4.74-.03-7.1Z"/>
      <path class="cls-1" d="M335.19,131.99c0,2.12.04,4.24,0,6.36-.14,6.61-4.94,11.65-11.15,11.74-6.19.09-11.13-4.8-11.26-11.52-.47-25.77-7.64-49.37-22.87-70.29-3.66-5.02-7.87-9.66-12.02-14.3-4.9-5.49-5.24-12.12-.58-16.69,4.71-4.62,11.69-4.12,16.9,1.21,24.72,25.27,38.19,56.19,40.97,93.49Z"/>
      <path class="cls-1" d="M142.74,304.99h96.61c-2.85,9.8-23.73,23.04-39.45,24.86-23.4,2.71-42.05-5.73-57.16-24.86Z"/>
    </g>
  </g>
</svg>