<?xml version="1.0" standalone="no"?>
<!DOCTYPE svg PUBLIC "-//W3C//DTD SVG 20010904//EN"
 "http://www.w3.org/TR/2001/REC-SVG-20010904/DTD/svg10.dtd">
<svg version="1.0" xmlns="http://www.w3.org/2000/svg"
 width="512.000000pt" height="512.000000pt" viewBox="0 0 512.000000 512.000000"
 preserveAspectRatio="xMidYMid meet">

<g transform="translate(0.000000,512.000000) scale(0.100000,-0.100000)"
fill="#000000" stroke="none">
<path d="M1405 5100 c-510 -106 -980 -394 -1311 -805 -73 -91 -79 -104 -79
-181 0 -60 4 -76 27 -112 33 -49 98 -90 159 -98 77 -11 137 23 224 126 105
124 282 289 383 358 233 158 412 234 708 302 108 25 159 58 192 123 59 118 -7
264 -134 296 -54 14 -59 13 -169 -9z"/>
<path d="M2640 4674 c-210 -30 -414 -94 -585 -183 -117 -61 -1341 -819 -1414
-875 -459 -353 -550 -1020 -203 -1481 36 -49 374 -393 868 -886 826 -823 855
-849 1004 -924 279 -140 661 -140 940 0 146 73 297 199 389 324 88 120 813
1313 871 1436 65 135 118 291 151 445 31 143 34 491 6 645 -53 289 -168 560
-324 767 l-44 57 184 188 c201 205 213 224 205 319 -11 136 -157 222 -285 169
-21 -9 -111 -88 -219 -195 l-183 -179 -80 57 c-176 125 -406 232 -601 278
-213 50 -488 66 -680 38z"/>
<path d="M4861 1699 c-98 -19 -144 -77 -178 -222 -103 -445 -296 -752 -676
-1080 -77 -67 -97 -99 -104 -171 -4 -42 0 -60 24 -106 39 -77 102 -115 187
-114 72 0 100 13 193 90 388 323 649 737 774 1228 39 151 40 211 5 271 -40 67
-79 93 -166 110 -8 1 -35 -1 -59 -6z"/>
<path d="M471 1385 c-34 -110 -44 -191 -38 -314 15 -323 191 -601 476 -749
117 -61 208 -89 324 -101 127 -12 294 8 401 49 l30 11 -585 585 c-321 321
-585 584 -586 584 -1 0 -11 -29 -22 -65z"/>
</g>
</svg>
