<?xml version="1.0" standalone="no"?>
<!DOCTYPE svg PUBLIC "-//W3C//DTD SVG 20010904//EN"
 "http://www.w3.org/TR/2001/REC-SVG-20010904/DTD/svg10.dtd">
<svg version="1.0" xmlns="http://www.w3.org/2000/svg"
 width="512.000000pt" height="512.000000pt" viewBox="0 0 512.000000 512.000000"
 preserveAspectRatio="xMidYMid meet">

<g transform="translate(0.000000,512.000000) scale(0.100000,-0.100000)"
fill="#000000" stroke="none">
<path d="M1724 5110 c-65 -13 -135 -54 -185 -107 -65 -70 -92 -131 -97 -224
l-5 -78 -556 -3 c-555 -3 -556 -3 -613 -26 -109 -44 -197 -133 -240 -243 -30
-76 -30 -212 0 -288 43 -110 131 -199 240 -243 l57 -23 2230 0 c2120 0 2233 1
2281 18 113 39 212 135 255 245 31 80 31 214 0 294 -41 107 -130 195 -242 241
-53 22 -63 22 -610 25 l-556 3 -5 78 c-8 135 -87 250 -211 307 l-62 29 -820 2
c-451 0 -839 -3 -861 -7z"/>
<path d="M420 2078 c0 -997 4 -1666 10 -1701 30 -189 178 -336 366 -367 79
-13 3448 -13 3527 0 189 30 336 178 367 366 6 36 10 695 10 1702 l0 1642
-2140 0 -2140 0 0 -1642z m1284 1169 c21 -12 47 -38 57 -57 18 -33 19 -85 19
-1240 0 -1155 -1 -1207 -19 -1240 -10 -19 -36 -45 -57 -58 -37 -21 -47 -22
-224 -20 -175 3 -187 4 -218 26 -72 52 -67 -44 -70 1247 -2 638 0 1183 3 1212
8 62 37 109 85 134 30 16 58 19 210 19 163 0 178 -2 214 -23z m1070 0 c21 -12
47 -38 57 -57 18 -33 19 -85 19 -1240 0 -1155 -1 -1207 -19 -1240 -10 -19 -36
-45 -57 -58 -37 -21 -47 -22 -224 -20 -175 3 -187 4 -218 26 -72 52 -67 -44
-70 1247 -2 638 0 1183 3 1212 8 62 37 109 85 134 30 16 58 19 210 19 163 0
178 -2 214 -23z m1070 0 c21 -12 47 -38 57 -57 18 -33 19 -85 19 -1240 0
-1155 -1 -1207 -19 -1240 -10 -19 -36 -45 -57 -58 -37 -21 -47 -22 -224 -20
-175 3 -187 4 -218 26 -72 52 -67 -44 -70 1247 -2 638 0 1183 3 1212 8 62 37
109 85 134 30 16 58 19 210 19 163 0 178 -2 214 -23z"/>
</g>
</svg>
